<?xml version="1.0" encoding="UTF-8"?>
<!-- Created with Inkscape (http://www.inkscape.org/) -->
<svg width="512" height="512" version="1.1" viewBox="0 0 512 512" xmlns="http://www.w3.org/2000/svg">
 <g transform="translate(10.223 4.9642)">
  <path d="m179.33 478.13c-2.8441-1.06-7.1191-3.2882-9.5-4.9514-2.3809-1.6632-36.558-35.347-75.949-74.852-82.439-82.679-77.38-76.511-77.38-94.328 0-18.161-9.4273-7.3264 112.37-129.14 102.1-102.11 106.87-106.73 112.42-108.75 5.6094-2.044 7.3882-2.1089 57.795-2.1089h52.008l-0.77413 3.75c-1.5422 7.4706-0.79019 22.356 1.5116 29.922 1.6769 5.5119 1.9493 7.7835 1.1769 9.8151-1.844 4.8501-1.1871 14.58 1.3526 20.034 10.272 22.058 41.013 22.058 51.285 0 4.7354-10.169 2.3298-23.395-5.7193-31.444-3.656-3.656-12.124-8.0514-15.541-8.0672-1.7253-8e-3 -2.2214-0.7786-2.6742-4.1537-0.6316-4.709 0.6059-13.705 2.3279-16.922 1.0012-1.8707 1.71-2.0712 5.31-1.502 2.285 0.36128 7.7891 2.412 12.231 4.5572 14.878 7.1846 26.604 22.762 29.401 39.054 0.75747 4.4129 1.0156 27.824 0.8153 73.957l-0.29302 67.5-2.7907 6c-2.5144 5.4058-13.209 16.41-108 111.13-119.31 119.21-110.23 111.23-127.43 112.03-6.9418 0.32081-9.8581 3e-3 -13.948-1.5217zm18.171-37.6c2.2601-0.49292 26.256-23.883 97.298-94.843 51.864-51.804 95.228-95.676 96.365-97.493 2.3605-3.7736 2.785-11.49 0.8416-15.295-1.6496-3.2302-123.62-125.44-127.81-128.06-4.4384-2.7771-11.954-2.7764-16.391 2e-3 -4.2055 2.6333-190.17 188.84-191.81 192.06-1.9398 3.806-1.5152 11.523 0.84155 15.295 1.1356 1.8176 30.1 31.288 64.365 65.489 46.587 46.5 63.057 62.349 65.301 62.837 1.65 0.35902 3.45 0.79838 4 0.97635s1.675 0.18043 2.5 5e-3c0.825-0.17495 2.85-0.61252 4.5-0.97238zm31.25 38.806c0.6875-0.27741 1.8125-0.27741 2.5 0s0.125 0.50439-1.25 0.50439-1.9375-0.22698-1.25-0.50439zm123.25-111.84c57.473-57.475 104.72-104.5 105-104.5s-46.523 47.025-104 104.5-104.72 104.5-105 104.5 46.523-47.025 104-104.5zm111.08-119.08c0.048-1.165 0.28494-1.4019 0.60416-0.60417 0.28887 0.72187 0.25335 1.5844-0.0789 1.9167-0.33229 0.33229-0.56864-0.25834-0.52522-1.3125zm2.921-124.79c0-0.20765 0.7875-0.99515 1.75-1.75 1.5861-1.2439 1.6214-1.2085 0.37756 0.37756-1.3064 1.6658-2.1276 2.1955-2.1276 1.3724zm16.158-37.622c0-1.375 0.22698-1.9375 0.50439-1.25s0.27741 1.8125 0 2.5-0.50439 0.125-0.50439-1.25zm-35.234-6.75-2.4243-2.75 5.3355 4.6941 0.44608-2.347c0.4053-2.1325 0.45854-2.0956 0.58227 0.40297 0.0749 1.5125-0.23538 2.75-0.68951 2.75-0.45412 0-1.9166-1.2375-3.25-2.75zm35.234-5.25c0-1.375 0.22698-1.9375 0.50439-1.25s0.27741 1.8125 0 2.5-0.50439 0.125-0.50439-1.25zm-66.345-9.6831c0.72187-0.28887 1.5844-0.25334 1.9167 0.07895 0.33229 0.33229-0.25834 0.56864-1.3125 0.52522-1.165-0.04798-1.4019-0.28494-0.60417-0.60417zm-1.5625-19.006c0.9625-0.25153 2.5375-0.25153 3.5 0 0.9625 0.25153 0.175 0.45732-1.75 0.45732s-2.7125-0.2058-1.75-0.45732zm52.622-8.0607c-1.2439-1.5861-1.2085-1.6214 0.37756-0.37756 1.6658 1.3064 2.1955 2.1276 1.3724 2.1276-0.20765 0-0.99515-0.7875-1.75-1.75zm-9-9c-1.2439-1.5861-1.2085-1.6214 0.37756-0.37756 0.9625 0.75484 1.75 1.5423 1.75 1.75 0 0.82303-0.82119 0.2933-2.1276-1.3724zm-49.122-14.912c0.6875-0.27741 1.8125-0.27741 2.5 0 0.6875 0.27741 0.125 0.50439-1.25 0.50439s-1.9375-0.22697-1.25-0.50439zm12.062-0.02083c0.72187-0.28887 1.5844-0.25334 1.9167 0.07895 0.33229 0.33229-0.25834 0.56864-1.3125 0.52522-1.165-0.04798-1.4019-0.28494-0.60417-0.60417z" fill="#d5e4ee"/>
  <path d="m202.07 478.63c2.5139-0.67781 6.7889-2.5009 9.5-4.0513 3.3385-1.9092 38.721-36.586 109.64-107.45 94.302-94.233 104.99-105.23 107.5-110.63l2.7924-6 0.29302-67.5c0.20026-46.133-0.0578-69.544-0.8153-73.957-3.5243-20.532-20.606-38.609-41.195-43.594-5.0761-1.2291-4.715-1.2818 9.217-1.3469 9.2116-0.043 17.053 0.47071 21.5 1.4085 21.818 4.6011 38.781 22.031 42.506 43.677 0.73004 4.2417 0.9892 28.453 0.79009 73.812l-0.2963 67.5-2.2882 5c-1.8866 4.1225-20.913 23.633-108.41 111.17-83.395 83.43-107.21 106.72-111.21 108.73-7.1551 3.6092-13.757 4.6066-29.974 4.5291-13.055-0.0624-13.771-0.15995-9.5429-1.2999zm-82.574-102.88-61.997-62.25 62.25 61.997c34.238 34.098 62.25 62.111 62.25 62.25 0 0.7018-4.8727-4.1314-62.503-61.997zm176-31.75c51.698-51.7 94.221-94 94.496-94s-41.798 42.3-93.496 94-94.221 94-94.496 94 41.798-42.3 93.496-94zm-144-144c51.698-51.7 94.221-94 94.496-94s-41.798 42.3-93.496 94-94.221 94-94.496 94 41.798-42.3 93.496-94zm176-32.25-61.997-62.25 62.25 61.997c34.238 34.098 62.25 62.111 62.25 62.25 0 0.7018-4.8727-4.1314-62.503-61.997z" fill="#a4c2db"/>
  <path d="m376.53 130.92c-8.1751-1.4014-21.075-19.412-25.219-35.212-2.1554-8.2167-2.1248-23.31 0.06432-31.711 6.2587-24.02 24.743-42.513 48.626-48.65 8.4852-2.1802 23.515-2.1802 32 0 9.2003 2.364 19.418 7.6372 27.089 13.98 5.3594 4.4316 6.8246 6.2898 7.8517 9.958 2.9957 10.7-4.4302 20.712-15.362 20.712-4.6934 0-8.1954-1.6575-13.664-6.4674-14.445-12.705-37.713-9.9317-49.572 5.9085-4.8977 6.5419-6.6435 12.081-6.6428 21.077 6.9e-4 9.4231 2.182 15.342 8.35 22.657 6.4131 7.6056 7.3478 12.149 4.0113 19.497-3.0053 6.6192-9.4267 9.6412-17.533 8.2516zm105.74-50.924c0-2.475 0.19502-3.4875 0.43337-2.25 0.23836 1.2375 0.23836 3.2625 0 4.5-0.23835 1.2375-0.43337 0.225-0.43337-2.25z" fill="#f89e18"/>
  <path d="m185.5 439.85c-3.114-1.6897-127.45-126.01-129.06-129.05-1.7058-3.209-1.879-10.053-0.33183-13.115 1.567-3.1015 189.83-191.51 193.1-193.25 3.4633-1.8415 10.135-1.8417 13.599-3.9e-4 3.2647 1.7354 127.53 126.15 129.1 129.25 1.4205 2.8104 1.4207 9.8204 3.9e-4 12.631-1.567 3.1015-189.83 191.51-193.1 193.25-3.1658 1.6833-10.439 1.8418-13.3 0.2898zm13.847-66.03c5.7547-2.9351 16.766-14.306 19.682-20.324 3.2912-6.7936 3.4759-19.778 0.37698-26.504-4.9779-10.804-12.624-14.868-17.951-9.5418-3.2703 3.2703-3.0902 7.1319 0.55738 11.952 6.0048 7.9355 5.2729 15.297-2.3188 23.324-2.8412 3.0042-6.3871 6.0937-7.8798 6.8656-3.244 1.6776-11.079 1.8422-14.129 0.29689-3.1186-1.5799-39.533-37.855-41.252-41.094-1.829-3.4472-1.8443-11.103-0.0293-14.613 0.77189-1.4927 3.8614-5.0386 6.8656-7.8798 8.0272-7.5918 15.389-8.3236 23.324-2.3188 4.8204 3.6476 8.682 3.8277 11.952 0.55738 5.24-5.24 1.8555-12.237-8.3414-17.244-4.9093-2.4108-6.8885-2.7977-14.204-2.7765-10.174 0.0295-15.261 2.1194-23.512 9.6602-10.062 9.196-13.7 16.834-13.61 28.571 0.0875 11.4 2.4636 14.958 25.31 37.907 12.824 12.881 21.871 21.141 25.053 22.873 8.6441 4.7047 21.212 4.8253 30.106 0.28898zm59.087-60.885c16.475-6.164 24.599-26.26 17.176-42.485-2.2624-4.9452-6.2016-9.4466-23.25-26.568-12.758-12.813-22.154-21.427-24.828-22.763-13.154-6.5694-27.825-4.0715-38.084 6.4843-6.1812 6.36-8.7705 13.747-8.1997 23.393 0.70952 11.99 2.0889 13.962 27.031 38.65 19.46 19.262 22.842 22.195 27.221 23.61 7.1086 2.2976 16.277 2.169 22.933-0.32154zm-18.933-15.492c-4.163-2.138-39.159-37.209-41-41.088-1.9137-4.0329-1.9231-10.641-0.0202-14.321 3.2428-6.2709 11.544-9.9543 18.257-8.1008 5.4352 1.5007 43.861 39.917 45.323 45.312 1.8352 6.7697-1.8245 15.025-8.0991 18.27-3.7073 1.9171-10.655 1.882-14.461-0.073zm83.216-45.731c14.389-14.389 16.284-16.663 16.284-19.545 0-4.3481-3.7984-8.171-8.1186-8.171-2.7684 0-4.9522 1.7244-15.888 12.545l-12.679 12.545-3.6571-4.048c-5.3405-5.9113-5.0177-8.7643 1.8004-15.912 11.314-11.861 12.605-23.493 3.8786-34.934-5.5904-7.3294-19.049-10.374-27.836-6.2961-5.7874 2.6856-26.5 24.032-26.5 27.311 0 4.1971 3.5818 7.7884 7.7678 7.7884 3.257 0 4.6982-1.0598 14.278-10.5 9.5292-9.3903 11.033-10.5 14.232-10.5 2.6731 0 4.1006 0.66577 5.6494 2.6349 3.2691 4.1559 2.6123 6.6847-3.5215 13.559-6.8088 7.6308-8.3417 10.468-9.0959 16.837-1.0567 8.9225 1.001 13.345 11.036 23.72 12.888 13.323 11.77 13.566 32.37-7.0336z" fill="#8fc63b"/>
  <path d="m377.81 131.32c0.72187-0.28887 1.5844-0.25335 1.9167 0.0789 0.33229 0.33229-0.25834 0.56864-1.3125 0.52522-1.165-0.048-1.4019-0.28494-0.60417-0.60416zm4 0c0.72187-0.28887 1.5844-0.25335 1.9167 0.0789 0.33229 0.33229-0.25834 0.56864-1.3125 0.52522-1.165-0.048-1.4019-0.28494-0.60417-0.60416zm-14.375-5.5669-2.9371-3.25 3.25 2.9371c1.7875 1.6154 3.25 3.0779 3.25 3.25 0 0.77256-0.82513 0.0924-3.5629-2.9371zm96.59-6.75c-0.0992-11.427-4.1489-23.984-10.481-32.5-1.4834-1.9949-2.4491-5.1251-2.8825-9.3431-0.67283-6.5481-3.4573-14.119-6.4512-17.54-1.6346-1.8679-1.6216-1.9186 0.28819-1.1247 3.593 1.4936 9.2995 1.729 12.923 0.53307 7.1987-2.3758 12.256-12.505 9.6532-19.332-0.58867-1.5439-0.66598-2.5573-0.17179-2.2518 2.2214 1.3729 8.5553 12.401 11.408 19.864 2.9915 7.8247 3.1328 8.8506 3.1272 22.695-5e-3 13.358-0.22008 15.062-2.7261 21.63-3.4544 9.0539-6.7507 14.945-11.151 19.929l-3.48 3.9416zm-74.154-15.75c-1.2439-1.5861-1.2085-1.6214 0.37756-0.37756 1.6658 1.3064 2.1955 2.1276 1.3724 2.1276-0.20765 0-0.99515-0.7875-1.75-1.75z" fill="#ed6322"/>
  <path d="m179.36 376.9c-8.9265-1.1397-13.815-4.7869-35.173-26.24-22.846-22.948-25.222-26.507-25.31-37.907-0.0901-11.737 3.5484-19.375 13.61-28.571 8.2507-7.5407 13.337-9.6307 23.512-9.6602 7.3156-0.0212 9.2948 0.36568 14.204 2.7765 10.197 5.0073 13.581 12.004 8.3414 17.244-3.2703 3.2703-7.1319 3.0902-11.952-0.55738-7.9355-6.0048-15.297-5.2729-23.324 2.3188-3.0042 2.8412-6.0937 6.3871-6.8656 7.8798-1.815 3.5099-1.7997 11.166 0.0293 14.613 1.7182 3.2384 38.133 39.514 41.252 41.094 3.0503 1.5453 10.885 1.3807 14.129-0.29689 1.4927-0.77189 5.0386-3.8614 7.8798-6.8656 7.5918-8.0272 8.3236-15.389 2.3188-23.324-3.6476-4.8204-3.8277-8.682-0.55738-11.952 5.3267-5.3267 12.973-1.2622 17.951 9.5418 3.0989 6.7259 2.9142 19.71-0.37698 26.504-2.9152 6.0176-13.927 17.388-19.682 20.324-5.2462 2.6758-13.355 3.9246-19.986 3.078zm56.139-63.641c-4.3789-1.4153-7.7604-4.3483-27.221-23.61-24.942-24.688-26.322-26.66-27.031-38.65-0.5708-9.646 2.0185-17.033 8.1997-23.393 10.259-10.556 24.93-13.054 38.084-6.4843 2.6735 1.3352 12.069 9.9495 24.828 22.763 23.793 23.895 25.974 27.222 25.974 39.615 0 22.029-21.194 36.755-42.833 29.761zm18.461-15.741c6.2746-3.2447 9.9344-11.5 8.0991-18.27-1.4627-5.3955-39.888-43.811-45.323-45.312-6.7128-1.8535-15.014 1.8299-18.257 8.1008-1.9028 3.6797-1.8935 10.288 0.0202 14.321 1.8403 3.8782 36.837 38.95 41 41.088 3.8068 1.9551 10.754 1.9901 14.461 0.073zm36.385-38.77c-10.035-10.375-12.093-14.797-11.036-23.72 0.75425-6.3685 2.2871-9.2057 9.0959-16.837 6.1338-6.8743 6.7906-9.403 3.5215-13.559-1.5489-1.9691-2.9764-2.6349-5.6494-2.6349-3.1989 0-4.7029 1.1097-14.232 10.5-9.5798 9.4402-11.021 10.5-14.278 10.5-4.186 0-7.7678-3.5913-7.7678-7.7884 0-3.279 20.713-24.626 26.5-27.311 15.185-7.0466 33.556 4.9254 33.478 21.818-0.0299 6.5049-3.0152 12.592-9.5206 19.412-6.8181 7.148-7.1409 10.001-1.8004 15.912l3.6571 4.048 12.679-12.545c10.936-10.821 13.12-12.545 15.888-12.545 4.3203 0 8.1186 3.8228 8.1186 8.171 0 2.8823-1.8949 5.1568-16.284 19.545-20.6 20.6-19.482 20.357-32.37 7.0336z" fill="#4c963f"/>
  <path d="m371.2 142.17c-7.2182-2.5746-12.179-6.8303-15.46-13.264-3.3942-6.6544-4.3256-13.031-2.7554-18.862l1.1955-4.4397 3.4841 6.5999c4.7413 8.9815 12.659 17.276 17.985 18.839 14.597 4.2862 25.725-11.167 17.444-24.224-1.5962-2.517-3.4048-4.8869-4.019-5.2666-1.6294-1.007-6.2474-10.476-5.8865-12.07 0.44714-1.9754 9.8348 1.3874 14.603 5.2311 4.4542 3.5906 8.988 12.076 9.8253 18.388 0.80523 6.071-1.6885 14.525-5.9219 20.075-6.7065 8.7928-20.034 12.723-30.493 8.9922z" fill="#463c4a"/>
 </g>
</svg>
