<?xml version="1.0" encoding="UTF-8"?>
<svg xmlns="http://www.w3.org/2000/svg" xmlns:xlink="http://www.w3.org/1999/xlink" width="32px" height="32px" viewBox="0 0 32 32" version="1.1">
<defs>
<clipPath id="clip1">
  <path d="M 0 0 L 31.746094 0 L 31.746094 31.882812 L 0 31.882812 Z M 0 0 "/>
</clipPath>
</defs>
<g id="surface1">
<g clip-path="url(#clip1)" clip-rule="nonzero">
<path style=" stroke:none;fill-rule:nonzero;fill:rgb(22.745098%,80.000001%,56.470591%);fill-opacity:1;" d="M 31.367188 12.617188 C 30.984375 12.15625 30.367188 11.886719 29.71875 11.898438 L 22.625 11.898438 C 21.914062 11.898438 21.246094 12.199219 20.832031 12.707031 L 19.195312 14.710938 C 18.859375 15.121094 18.324219 15.363281 17.75 15.363281 L 16.710938 15.363281 L 16.621094 13.164062 C 16.617188 12.289062 16.222656 11.449219 15.519531 10.832031 L 3.765625 0.5625 C 3.007812 -0.0976562 1.824219 -0.191406 0.945312 0.339844 C 0.339844 0.71875 -0.015625 1.339844 0 1.992188 L 0 13.027344 C 0.00390625 14.03125 0.457031 14.988281 1.265625 15.695312 L 9.703125 23.054688 C 10.050781 23.371094 10.5625 23.496094 11.042969 23.386719 C 11.527344 23.273438 11.902344 22.941406 12.023438 22.519531 C 12.148438 22.09375 12 21.644531 11.636719 21.34375 L 3.195312 13.988281 C 2.90625 13.734375 2.742188 13.386719 2.742188 13.027344 L 2.742188 3.25 L 13.582031 12.535156 C 13.769531 12.703125 13.878906 12.925781 13.878906 13.160156 L 13.878906 29.871094 C 13.863281 30.6875 14.417969 31.433594 15.277344 31.746094 C 16.21875 32.070312 17.289062 31.792969 17.882812 31.074219 L 31.355469 14.59375 C 31.835938 14.003906 31.839844 13.214844 31.367188 12.621094 M 28.113281 14.433594 L 16.78125 28.289062 L 16.621094 17.851562 L 17.75 17.777344 C 19.203125 17.773438 20.566406 17.160156 21.417969 16.121094 L 22.765625 14.46875 L 28.039062 14.304688 "/>
</g>
</g>
</svg>
